<svg width="1200" height="360" viewBox="0 0 1200 360" fill="none" xmlns="http://www.w3.org/2000/svg">
  <rect width="1200" height="360" fill="#0b1020"/>
  <rect x="0" y="0" width="1200" height="12" fill="#75a7ff"/>
  <rect x="0" y="348" width="1200" height="12" fill="#75a7ff"/>
  <rect x="40" y="42" width="1120" height="276" fill="#111831" stroke="#75a7ff" stroke-width="6"/>
  <rect x="58" y="60" width="1084" height="240" fill="#0d1328"/>

  <g opacity=".18">
    <rect x="96" y="92" width="18" height="18" fill="#75a7ff"/>
    <rect x="132" y="92" width="18" height="18" fill="#75a7ff"/>
    <rect x="168" y="92" width="18" height="18" fill="#75a7ff"/>
    <rect x="1014" y="252" width="18" height="18" fill="#75a7ff"/>
    <rect x="1050" y="252" width="18" height="18" fill="#75a7ff"/>
    <rect x="1086" y="252" width="18" height="18" fill="#75a7ff"/>
  </g>

  <g transform="translate(790 70)">
    <rect x="50" y="18" width="94" height="24" fill="#244c93"/>
    <rect x="34" y="42" width="126" height="24" fill="#315fae"/>
    <rect x="22" y="66" width="150" height="30" fill="#75a7ff"/>
    <rect x="34" y="96" width="126" height="28" fill="#9cc2ff"/>
    <rect x="52" y="124" width="90" height="46" fill="#f1d7c8"/>
    <rect x="58" y="138" width="14" height="14" fill="#0b1020"/>
    <rect x="120" y="138" width="14" height="14" fill="#0b1020"/>
    <rect x="82" y="158" width="34" height="8" fill="#875b55"/>
    <rect x="40" y="170" width="114" height="72" fill="#253a77"/>
    <rect x="58" y="242" width="24" height="46" fill="#18264f"/>
    <rect x="112" y="242" width="24" height="46" fill="#18264f"/>
    <rect x="10" y="184" width="30" height="58" fill="#9cc2ff"/>
    <rect x="154" y="184" width="30" height="58" fill="#9cc2ff"/>
    <rect x="184" y="82" width="16" height="168" fill="#d9e7ff"/>
    <rect x="168" y="226" width="58" height="24" fill="#75a7ff"/>
    <rect x="158" y="250" width="78" height="18" fill="#315fae"/>
    <rect x="210" y="62" width="44" height="44" fill="#75a7ff"/>
    <rect x="220" y="72" width="24" height="24" fill="#0b1020"/>
    <rect x="194" y="122" width="52" height="10" fill="#d9e7ff"/>
    <rect x="186" y="140" width="68" height="10" fill="#d9e7ff"/>
  </g>

  <text x="94" y="150" fill="#e7f0ff" font-family="'Courier New', monospace" font-size="54" font-weight="700">Zhang Ruizhe</text>
  <text x="98" y="202" fill="#75a7ff" font-family="'Courier New', monospace" font-size="26" font-weight="700">AI Student @ MUST</text>
  <text x="98" y="246" fill="#9cc2ff" font-family="'Courier New', monospace" font-size="22">learning by building real projects</text>
  <rect x="98" y="266" width="286" height="10" fill="#75a7ff"/>
  <rect x="398" y="266" width="72" height="10" fill="#d9e7ff"/>
</svg>
