<svg width="1200" height="260" viewBox="0 0 1200 260" fill="none" xmlns="http://www.w3.org/2000/svg">
  <rect width="1200" height="260" fill="#07101f"/>
  <rect x="44" y="34" width="1112" height="192" fill="#0a1430" stroke="#1c376a" stroke-width="3"/>
  <rect x="62" y="52" width="1076" height="156" fill="#07101f"/>

  <g opacity=".35">
    <rect x="78" y="190" width="1040" height="2" fill="#75a7ff"/>
    <rect x="78" y="202" width="860" height="2" fill="#3fc7ff"/>
    <rect x="1004" y="72" width="18" height="18" fill="#3fc7ff"/>
    <rect x="1040" y="96" width="12" height="12" fill="#755eff"/>
    <rect x="1074" y="76" width="10" height="10" fill="#9cc2ff"/>
  </g>

  <text x="86" y="92" fill="#e7f0ff" font-family="'Courier New', monospace" font-size="28" font-weight="700">current save file</text>
  <rect x="86" y="110" width="196" height="6" fill="#75a7ff"/>

  <text x="86" y="154" fill="#6882b6" font-family="'Courier New', monospace" font-size="18">major</text>
  <text x="178" y="154" fill="#d9e7ff" font-family="'Courier New', monospace" font-size="20" font-weight="700">Artificial Intelligence</text>

  <text x="86" y="184" fill="#6882b6" font-family="'Courier New', monospace" font-size="18">stage</text>
  <text x="178" y="184" fill="#d9e7ff" font-family="'Courier New', monospace" font-size="20" font-weight="700">undergraduate / building mode</text>

  <g transform="translate(648 74)">
    <rect x="0" y="0" width="404" height="96" fill="#0d1830" stroke="#234a8d" stroke-width="2"/>
    <rect x="18" y="18" width="368" height="8" fill="#10274d"/>
    <rect x="18" y="18" width="214" height="8" fill="#75a7ff"/>
    <text x="18" y="56" fill="#75a7ff" font-family="'Courier New', monospace" font-size="18" font-weight="700">now playing</text>
    <text x="160" y="56" fill="#e7f0ff" font-family="'Courier New', monospace" font-size="20" font-weight="700">quiet bassline</text>
    <text x="18" y="82" fill="#9cc2ff" font-family="'Courier New', monospace" font-size="16">code + models + simulation</text>
  </g>
</svg>
